<svg width="24" height="22" viewBox="0 0 24 22" fill="none" xmlns="http://www.w3.org/2000/svg">
<path d="M23.5049 12.6075L23.5295 12.7458L23.9919 16.7116C24.0971 17.6146 23.1606 18.2628 22.3429 17.9102L22.2212 17.8497L21.0974 17.214C18.0559 21.5105 12.3182 23.2413 7.34584 21.0495C4.02791 19.587 1.69611 16.6464 0.974632 13.168C0.844199 12.5391 1.25855 11.9257 1.90012 11.7978C2.54168 11.67 3.16751 12.0761 3.29794 12.705C3.8697 15.4616 5.70764 17.7794 8.31823 18.9301C12.1617 20.6243 16.601 19.3306 19.0352 16.0467L17.8427 15.3709C17.026 14.9086 17.0714 13.7632 17.8677 13.3442L18.0074 13.2813L21.9236 11.7943C22.6024 11.5365 23.3424 11.9338 23.5049 12.6075ZM11.9357 7.28176C12.5776 7.28176 13.1003 7.78177 13.1206 8.40608L13.1212 8.44368V10.9916L14.425 12.0372C14.9209 12.4349 15.003 13.1446 14.6176 13.6402L14.5918 13.6722C14.1861 14.1583 13.462 14.2388 12.9564 13.861L12.9237 13.8357L11.1851 12.4414C10.9219 12.2303 10.7644 11.9192 10.7512 11.5875L10.7503 8.44368C10.7503 7.80197 11.2811 7.28176 11.9357 7.28176ZM16.2708 0.927961C19.245 2.20841 21.4413 4.65345 22.3923 7.63186C22.5879 8.24428 22.2399 8.89612 21.6151 9.0878C21.0028 9.27564 20.3519 8.95182 20.142 8.36239L20.1297 8.32597C19.3812 5.98185 17.6578 4.06321 15.3174 3.05563C11.6633 1.4825 7.4717 2.5354 4.95174 5.37697L6.15731 6.06037C6.97397 6.5227 6.92861 7.66816 6.1323 8.08715L5.99265 8.15001L2.07641 9.63704C1.39759 9.89479 0.657551 9.49755 0.49506 8.8238L0.470452 8.68548L0.00813318 4.71967C-0.0971315 3.8167 0.839432 3.1685 1.65714 3.52111L1.77876 3.5816L2.86789 4.19771C6.01001 0.350573 11.4948 -1.12813 16.2708 0.927961Z" fill="#17479E"/>
</svg>
